ply
format ascii 1.0
comment : chr_sword
comment : MagicaVoxel @ ephtracy
element vertex 48
property float x
property float y
property float z
property uchar red
property uchar green
property uchar blue
element face 92
property list uchar int vertex_index
end_header
-1.5 -0.5 0.5 255 0 0
-2 0 0.5 255 0 0
-1.5 0 0 255 0 0
-0.5 0 0 153 204 255
-0.5 -0.5 0.5 153 204 255
0.5 0 0 153 204 255
0.5 -0.5 0.5 153 204 255
1.5 0 0 255 0 0
1.5 -0.5 0.5 255 0 0
2 0 0.5 255 0 0
-1.5 0.5 0.5 255 0 0
-0.5 0.5 0.5 153 204 255
0.5 0.5 0.5 153 204 255
1.5 0.5 0.5 255 0 0
-1.5 -0.5 1.5 153 204 255
-2 0 1.5 153 204 255
-0.5 -0.5 1.5 153 204 255
0.5 -0.5 1.5 153 204 255
1.5 -0.5 1.5 153 204 255
2 0 1.5 255 0 0
-1.5 0.5 1.5 153 204 255
-0.5 0.5 1.5 153 204 255
0.5 0.5 1.5 153 204 255
1.5 0.5 1.5 153 204 255
-1.5 -0.5 2.5 153 204 255
-2 0 2.5 153 204 255
-0.5 -0.5 2.5 153 204 255
0.5 -0.5 2.5 153 204 255
1.5 -0.5 2.5 153 204 255
2 0 2.5 153 204 255
-1.5 0.5 2.5 153 204 255
-0.5 0.5 2.5 153 204 255
0.5 0.5 2.5 153 204 255
1.5 0.5 2.5 153 204 255
-1.5 -0.5 3.5 255 0 0
-2 0 3.5 255 0 0
-0.5 -0.5 3.5 153 204 255
0.5 -0.5 3.5 153 204 255
1.5 -0.5 3.5 255 0 0
2 0 3.5 255 0 0
-1.5 0.5 3.5 255 0 0
-0.5 0.5 3.5 153 204 255
0.5 0.5 3.5 153 204 255
1.5 0.5 3.5 255 0 0
-1.5 0 4 255 0 0
-0.5 0 4 153 204 255
0.5 0 4 153 204 255
1.5 0 4 255 0 0
3 0 1 2
3 0 2 3
3 0 3 4
3 4 3 5
3 4 5 6
3 6 5 7
3 6 7 8
3 9 8 7
3 2 1 10
3 2 10 11
3 2 11 3
3 3 11 12
3 3 12 5
3 5 12 13
3 5 13 7
3 9 7 13
3 1 0 14
3 1 14 15
3 0 4 16
3 0 16 14
3 4 6 17
3 4 17 16
3 6 8 18
3 6 18 17
3 9 19 18
3 9 18 8
3 15 20 10
3 15 10 1
3 20 21 11
3 20 11 10
3 21 22 12
3 21 12 11
3 22 23 13
3 22 13 12
3 19 9 13
3 19 13 23
3 15 14 24
3 15 24 25
3 14 16 26
3 14 26 24
3 16 17 27
3 16 27 26
3 17 18 28
3 17 28 27
3 19 29 28
3 19 28 18
3 25 30 20
3 25 20 15
3 30 31 21
3 30 21 20
3 31 32 22
3 31 22 21
3 32 33 23
3 32 23 22
3 29 19 23
3 29 23 33
3 25 24 34
3 25 34 35
3 24 26 36
3 24 36 34
3 26 27 37
3 26 37 36
3 27 28 38
3 27 38 37
3 29 39 38
3 29 38 28
3 35 40 30
3 35 30 25
3 40 41 31
3 40 31 30
3 41 42 32
3 41 32 31
3 42 43 33
3 42 33 32
3 39 29 33
3 39 33 43
3 44 35 34
3 44 34 36
3 44 36 45
3 45 36 37
3 45 37 46
3 46 37 38
3 46 38 47
3 39 47 38
3 40 35 44
3 40 44 45
3 40 45 41
3 41 45 46
3 41 46 42
3 42 46 47
3 42 47 43
3 39 43 47
